# xmcd
#
# Track frame offsets:
#	150
#	9211
#	18878
#	31363
#	44756
#	59302
#	69838
#	81511
#	95385
#	108065
#	116645
#	132747
#
# Disc length: 1922 seconds
#
# Revision: 0
# Processed by: cddbd v1.5.2PL0 Copyright (c) Steve Scherf et al.
# Submitted via: audiograbber 1.82.01
#
DISCID=9707800c
DTITLE=Bond Johnny and The Willis Brothers - The Return Of The Singing Cowboy
DYEAR=1977
DGENRE=Country
TTITLE0=Willis Brothers - Cimmarron (Roll On)
TTITLE1=Bond Johnny and The Willis Brothers - Idaho
TTITLE2=Willis Brothers and Johnny Bond - Cowboy's Dream
TTITLE3=Bond Johnny and The Willis Brothers - High Noon
TTITLE4=Willis Brothers - Take Me Back To My Boots And Saddles 
TTITLE5=Bond Johnny and The Willis Brothers - Cool Water
TTITLE6=Bond Johnny - Rollin Plains
TTITLE7=Willis Brothers - Take Me Back To Tulsa
TTITLE8=Bond Johnny - South Of The Border
TTITLE9=Willis Brothers and Johnny Bond - The Happy Cowboy
TTITLE10=Willis Brothers - Red River Valley
TTITLE11=Bond Johnny and The Willis Brothers - Back In The Saddle Again
EXTD=
EXTT0=
EXTT1=
EXTT2=
EXTT3=
EXTT4=
EXTT5=
EXTT6=
EXTT7=
EXTT8=
EXTT9=
EXTT10=
EXTT11=
PLAYORDER=
